<svg version="1.0" xmlns="http://www.w3.org/2000/svg" width="682.667" height="682.667" viewBox="0 0 512 512"><path d="M225.5 2C150.3 15.4 92.2 74.4 79.4 150.5c-2.6 15.2-2.4 44.5.4 59.5 3 16.3 9.1 34.6 16.4 49.1 4 7.8 33.3 54.3 79.7 126.4 40.4 62.7 75.1 116.6 77.1 119.8l3.7 5.8L334 390.9c42.5-66.1 79.4-124.3 82-129.3 13.8-26.3 20-52.3 20-83.1 0-48.2-17.7-91.3-51.8-125.8-27.1-27.5-60.9-45-99.2-51.3-12.6-2-46.7-1.7-59.5.6zm50.6 28.4c28.4 3.8 52.4 14.2 75.1 32.5 19.9 16 36.9 39.9 46.1 64.6 9.7 26 11.6 57.4 5.2 85.5-5.6 24.2-8 28.5-79.4 139.6-35.4 54.9-64.8 100.5-65.5 101.2-1 1-14.1-18.8-65.2-98-35.9-55.8-66.3-104.1-69.4-110.3-6.4-12.8-10-23-13.1-37.5-3.3-15-3.3-42.8 0-58 6.4-30.2 20.2-55.9 41.2-76.9 33.1-33.1 79.1-48.8 125-42.7z"/><path d="M245 89.6c-21.8 4-37.7 12-51.6 25.8-11.8 11.9-19.7 25.9-24 42.6-2.8 11.2-2.6 32.7.4 43.5 9.1 32.1 33.4 56 65.1 64.2 17 4.3 38 3.1 54-3.2 23.7-9.3 42.4-27.9 51.6-51.6 6.3-16 7.5-37.1 3.2-54-6.7-26-24.1-47.2-48.2-58.9-12.4-6-21-8.1-35.5-8.5-6.9-.2-13.6-.2-15 .1zm31.1 32.6c8.8 3.3 14.6 6.7 21.2 12.8 7.4 6.8 12.5 14.6 16 24.9 4.9 14.2 3.8 32-2.8 45-5.8 11.6-16 21.7-27.6 27.6-12.9 6.6-30.8 7.7-45 2.8-23.9-8.2-39.2-28.3-40.6-53.3-1.6-29.2 17-54.3 45.6-61.5 8.5-2.2 24.9-1.3 33.2 1.7z"/></svg>